<?xml version="1.0" encoding="UTF-8" standalone="no"?>
<!DOCTYPE svg PUBLIC "-//W3C//DTD SVG 1.1//EN"
 "http://www.w3.org/Graphics/SVG/1.1/DTD/svg11.dtd">
<!-- Generated by graphviz version 2.26.3 (20100126.1600)
 -->
<!-- Title: controllers_diagram Pages: 1 -->
<svg width="1042pt" height="930pt"
 viewBox="0.00 0.00 1042.00 930.00" xmlns="http://www.w3.org/2000/svg" xmlns:xlink="http://www.w3.org/1999/xlink">
<g id="graph1" class="graph" transform="scale(1 1) rotate(0) translate(4 926)">
<title>controllers_diagram</title>
<polygon fill="white" stroke="white" points="-4,5 -4,-926 1039,-926 1039,5 -4,5"/>
<!-- _diagram_info -->
<g id="node1" class="node"><title>_diagram_info</title>
<text text-anchor="start" x="791" y="-602.3" font-family="Times Roman,serif" font-size="13.00">Controllers diagram</text>
<text text-anchor="start" x="791" y="-586.3" font-family="Times Roman,serif" font-size="13.00">Date: May 21 2015 &#45; 08:17</text>
<text text-anchor="start" x="791" y="-570.3" font-family="Times Roman,serif" font-size="13.00">Migration version: 20150430174757</text>
<text text-anchor="start" x="791" y="-554.3" font-family="Times Roman,serif" font-size="13.00">Generated by RailRoady 1.3.0</text>
<text text-anchor="start" x="791" y="-538.3" font-family="Times Roman,serif" font-size="13.00">http://railroady.prestonlee.com</text>
</g>
<!-- HomeController -->
<g id="node2" class="node"><title>HomeController</title>
<polyline fill="none" stroke="black" points="105,-346.5 206,-346.5 "/>
<path fill="none" stroke="black" d="M206,-346.5C212,-346.5 218,-352.5 218,-358.5"/>
<polyline fill="none" stroke="black" points="218,-358.5 218,-433.5 "/>
<path fill="none" stroke="black" d="M218,-433.5C218,-439.5 212,-445.5 206,-445.5"/>
<polyline fill="none" stroke="black" points="206,-445.5 105,-445.5 "/>
<path fill="none" stroke="black" d="M105,-445.5C99,-445.5 93,-439.5 93,-433.5"/>
<polyline fill="none" stroke="black" points="93,-433.5 93,-358.5 "/>
<path fill="none" stroke="black" d="M93,-358.5C93,-352.5 99,-346.5 105,-346.5"/>
<text text-anchor="middle" x="155.5" y="-428.9" font-family="Times Roman,serif" font-size="14.00">HomeController</text>
<polyline fill="none" stroke="black" points="93,-420.5 218,-420.5 "/>
<text text-anchor="start" x="101" y="-403.9" font-family="Times Roman,serif" font-size="14.00">show</text>
<polyline fill="none" stroke="black" points="93,-395.5 218,-395.5 "/>
<polyline fill="none" stroke="black" points="93,-371.5 218,-371.5 "/>
<text text-anchor="start" x="101" y="-354.9" font-family="Times Roman,serif" font-size="14.00">_layout</text>
</g>
<!-- Api::V1::PeopleController -->
<g id="node3" class="node"><title>Api::V1::PeopleController</title>
<polyline fill="none" stroke="black" points="312,-530.5 477,-530.5 "/>
<path fill="none" stroke="black" d="M477,-530.5C483,-530.5 489,-536.5 489,-542.5"/>
<polyline fill="none" stroke="black" points="489,-542.5 489,-787.5 "/>
<path fill="none" stroke="black" d="M489,-787.5C489,-793.5 483,-799.5 477,-799.5"/>
<polyline fill="none" stroke="black" points="477,-799.5 312,-799.5 "/>
<path fill="none" stroke="black" d="M312,-799.5C306,-799.5 300,-793.5 300,-787.5"/>
<polyline fill="none" stroke="black" points="300,-787.5 300,-542.5 "/>
<path fill="none" stroke="black" d="M300,-542.5C300,-536.5 306,-530.5 312,-530.5"/>
<text text-anchor="middle" x="394.5" y="-782.9" font-family="Times Roman,serif" font-size="14.00">Api::V1::PeopleController</text>
<polyline fill="none" stroke="black" points="300,-774.5 489,-774.5 "/>
<text text-anchor="start" x="308" y="-757.9" font-family="Times Roman,serif" font-size="14.00">create</text>
<text text-anchor="start" x="308" y="-740.9" font-family="Times Roman,serif" font-size="14.00">destroy</text>
<text text-anchor="start" x="308" y="-723.9" font-family="Times Roman,serif" font-size="14.00">index</text>
<text text-anchor="start" x="308" y="-706.9" font-family="Times Roman,serif" font-size="14.00">people</text>
<text text-anchor="start" x="308" y="-689.9" font-family="Times Roman,serif" font-size="14.00">people=</text>
<text text-anchor="start" x="308" y="-672.9" font-family="Times Roman,serif" font-size="14.00">person</text>
<text text-anchor="start" x="308" y="-655.9" font-family="Times Roman,serif" font-size="14.00">person=</text>
<text text-anchor="start" x="308" y="-638.9" font-family="Times Roman,serif" font-size="14.00">show</text>
<text text-anchor="start" x="308" y="-621.9" font-family="Times Roman,serif" font-size="14.00">update</text>
<polyline fill="none" stroke="black" points="300,-613.5 489,-613.5 "/>
<polyline fill="none" stroke="black" points="300,-589.5 489,-589.5 "/>
<text text-anchor="start" x="308" y="-572.9" font-family="Times Roman,serif" font-size="14.00">_layout</text>
<text text-anchor="start" x="308" y="-555.9" font-family="Times Roman,serif" font-size="14.00">person_params</text>
<text text-anchor="start" x="308" y="-538.9" font-family="Times Roman,serif" font-size="14.00">redner_validations_error</text>
</g>
<!-- Api::V1::MessagesController -->
<g id="node4" class="node"><title>Api::V1::MessagesController</title>
<polyline fill="none" stroke="black" points="36,-24.5 221,-24.5 "/>
<path fill="none" stroke="black" d="M221,-24.5C227,-24.5 233,-30.5 233,-36.5"/>
<polyline fill="none" stroke="black" points="233,-36.5 233,-179.5 "/>
<path fill="none" stroke="black" d="M233,-179.5C233,-185.5 227,-191.5 221,-191.5"/>
<polyline fill="none" stroke="black" points="221,-191.5 36,-191.5 "/>
<path fill="none" stroke="black" d="M36,-191.5C30,-191.5 24,-185.5 24,-179.5"/>
<polyline fill="none" stroke="black" points="24,-179.5 24,-36.5 "/>
<path fill="none" stroke="black" d="M24,-36.5C24,-30.5 30,-24.5 36,-24.5"/>
<text text-anchor="middle" x="128.5" y="-174.9" font-family="Times Roman,serif" font-size="14.00">Api::V1::MessagesController</text>
<polyline fill="none" stroke="black" points="24,-166.5 233,-166.5 "/>
<text text-anchor="start" x="32" y="-149.9" font-family="Times Roman,serif" font-size="14.00">create</text>
<text text-anchor="start" x="32" y="-132.9" font-family="Times Roman,serif" font-size="14.00">message</text>
<text text-anchor="start" x="32" y="-115.9" font-family="Times Roman,serif" font-size="14.00">message=</text>
<polyline fill="none" stroke="black" points="24,-107.5 233,-107.5 "/>
<polyline fill="none" stroke="black" points="24,-83.5 233,-83.5 "/>
<text text-anchor="start" x="32" y="-66.9" font-family="Times Roman,serif" font-size="14.00">_layout</text>
<text text-anchor="start" x="32" y="-49.9" font-family="Times Roman,serif" font-size="14.00">message_params</text>
<text text-anchor="start" x="32" y="-32.9" font-family="Times Roman,serif" font-size="14.00">respond_unprocessable</text>
</g>
<!-- Api::V1::TeamsController -->
<g id="node5" class="node"><title>Api::V1::TeamsController</title>
<polyline fill="none" stroke="black" points="82,-668.5 245,-668.5 "/>
<path fill="none" stroke="black" d="M245,-668.5C251,-668.5 257,-674.5 257,-680.5"/>
<polyline fill="none" stroke="black" points="257,-680.5 257,-908.5 "/>
<path fill="none" stroke="black" d="M257,-908.5C257,-914.5 251,-920.5 245,-920.5"/>
<polyline fill="none" stroke="black" points="245,-920.5 82,-920.5 "/>
<path fill="none" stroke="black" d="M82,-920.5C76,-920.5 70,-914.5 70,-908.5"/>
<polyline fill="none" stroke="black" points="70,-908.5 70,-680.5 "/>
<path fill="none" stroke="black" d="M70,-680.5C70,-674.5 76,-668.5 82,-668.5"/>
<text text-anchor="middle" x="163.5" y="-903.9" font-family="Times Roman,serif" font-size="14.00">Api::V1::TeamsController</text>
<polyline fill="none" stroke="black" points="70,-895.5 257,-895.5 "/>
<text text-anchor="start" x="78" y="-878.9" font-family="Times Roman,serif" font-size="14.00">create</text>
<text text-anchor="start" x="78" y="-861.9" font-family="Times Roman,serif" font-size="14.00">destroy</text>
<text text-anchor="start" x="78" y="-844.9" font-family="Times Roman,serif" font-size="14.00">index</text>
<text text-anchor="start" x="78" y="-827.9" font-family="Times Roman,serif" font-size="14.00">show</text>
<text text-anchor="start" x="78" y="-810.9" font-family="Times Roman,serif" font-size="14.00">team</text>
<text text-anchor="start" x="78" y="-793.9" font-family="Times Roman,serif" font-size="14.00">team=</text>
<text text-anchor="start" x="78" y="-776.9" font-family="Times Roman,serif" font-size="14.00">teams</text>
<text text-anchor="start" x="78" y="-759.9" font-family="Times Roman,serif" font-size="14.00">teams=</text>
<text text-anchor="start" x="78" y="-742.9" font-family="Times Roman,serif" font-size="14.00">update</text>
<polyline fill="none" stroke="black" points="70,-734.5 257,-734.5 "/>
<polyline fill="none" stroke="black" points="70,-710.5 257,-710.5 "/>
<text text-anchor="start" x="78" y="-693.9" font-family="Times Roman,serif" font-size="14.00">_layout</text>
<text text-anchor="start" x="78" y="-676.9" font-family="Times Roman,serif" font-size="14.00">team_params</text>
</g>
<!-- Api::V1::CustomersController -->
<g id="node6" class="node"><title>Api::V1::CustomersController</title>
<polyline fill="none" stroke="black" points="266,-231.5 460,-231.5 "/>
<path fill="none" stroke="black" d="M460,-231.5C466,-231.5 472,-237.5 472,-243.5"/>
<polyline fill="none" stroke="black" points="472,-243.5 472,-471.5 "/>
<path fill="none" stroke="black" d="M472,-471.5C472,-477.5 466,-483.5 460,-483.5"/>
<polyline fill="none" stroke="black" points="460,-483.5 266,-483.5 "/>
<path fill="none" stroke="black" d="M266,-483.5C260,-483.5 254,-477.5 254,-471.5"/>
<polyline fill="none" stroke="black" points="254,-471.5 254,-243.5 "/>
<path fill="none" stroke="black" d="M254,-243.5C254,-237.5 260,-231.5 266,-231.5"/>
<text text-anchor="middle" x="363" y="-466.9" font-family="Times Roman,serif" font-size="14.00">Api::V1::CustomersController</text>
<polyline fill="none" stroke="black" points="254,-458.5 472,-458.5 "/>
<text text-anchor="start" x="262" y="-441.9" font-family="Times Roman,serif" font-size="14.00">create</text>
<text text-anchor="start" x="262" y="-424.9" font-family="Times Roman,serif" font-size="14.00">customer</text>
<text text-anchor="start" x="262" y="-407.9" font-family="Times Roman,serif" font-size="14.00">customer=</text>
<text text-anchor="start" x="262" y="-390.9" font-family="Times Roman,serif" font-size="14.00">customers</text>
<text text-anchor="start" x="262" y="-373.9" font-family="Times Roman,serif" font-size="14.00">customers=</text>
<text text-anchor="start" x="262" y="-356.9" font-family="Times Roman,serif" font-size="14.00">destroy</text>
<text text-anchor="start" x="262" y="-339.9" font-family="Times Roman,serif" font-size="14.00">index</text>
<text text-anchor="start" x="262" y="-322.9" font-family="Times Roman,serif" font-size="14.00">show</text>
<text text-anchor="start" x="262" y="-305.9" font-family="Times Roman,serif" font-size="14.00">update</text>
<polyline fill="none" stroke="black" points="254,-297.5 472,-297.5 "/>
<polyline fill="none" stroke="black" points="254,-273.5 472,-273.5 "/>
<text text-anchor="start" x="262" y="-256.9" font-family="Times Roman,serif" font-size="14.00">_layout</text>
<text text-anchor="start" x="262" y="-239.9" font-family="Times Roman,serif" font-size="14.00">customer_params</text>
</g>
<!-- Api::V1::ReceivedMessagesController -->
<g id="node7" class="node"><title>Api::V1::ReceivedMessagesController</title>
<polyline fill="none" stroke="black" points="657,-47.5 903,-47.5 "/>
<path fill="none" stroke="black" d="M903,-47.5C909,-47.5 915,-53.5 915,-59.5"/>
<polyline fill="none" stroke="black" points="915,-59.5 915,-168.5 "/>
<path fill="none" stroke="black" d="M915,-168.5C915,-174.5 909,-180.5 903,-180.5"/>
<polyline fill="none" stroke="black" points="903,-180.5 657,-180.5 "/>
<path fill="none" stroke="black" d="M657,-180.5C651,-180.5 645,-174.5 645,-168.5"/>
<polyline fill="none" stroke="black" points="645,-168.5 645,-59.5 "/>
<path fill="none" stroke="black" d="M645,-59.5C645,-53.5 651,-47.5 657,-47.5"/>
<text text-anchor="middle" x="780" y="-163.9" font-family="Times Roman,serif" font-size="14.00">Api::V1::ReceivedMessagesController</text>
<polyline fill="none" stroke="black" points="645,-155.5 915,-155.5 "/>
<text text-anchor="start" x="653" y="-138.9" font-family="Times Roman,serif" font-size="14.00">index</text>
<text text-anchor="start" x="653" y="-121.9" font-family="Times Roman,serif" font-size="14.00">received_messages</text>
<text text-anchor="start" x="653" y="-104.9" font-family="Times Roman,serif" font-size="14.00">received_messages=</text>
<polyline fill="none" stroke="black" points="645,-96.5 915,-96.5 "/>
<polyline fill="none" stroke="black" points="645,-72.5 915,-72.5 "/>
<text text-anchor="start" x="653" y="-55.9" font-family="Times Roman,serif" font-size="14.00">_layout</text>
</g>
<!-- Api::V1::SentMessagesController -->
<g id="node8" class="node"><title>Api::V1::SentMessagesController</title>
<polyline fill="none" stroke="black" points="381,-1.5 599,-1.5 "/>
<path fill="none" stroke="black" d="M599,-1.5C605,-1.5 611,-7.5 611,-13.5"/>
<polyline fill="none" stroke="black" points="611,-13.5 611,-173.5 "/>
<path fill="none" stroke="black" d="M611,-173.5C611,-179.5 605,-185.5 599,-185.5"/>
<polyline fill="none" stroke="black" points="599,-185.5 381,-185.5 "/>
<path fill="none" stroke="black" d="M381,-185.5C375,-185.5 369,-179.5 369,-173.5"/>
<polyline fill="none" stroke="black" points="369,-173.5 369,-13.5 "/>
<path fill="none" stroke="black" d="M369,-13.5C369,-7.5 375,-1.5 381,-1.5"/>
<text text-anchor="middle" x="490" y="-168.9" font-family="Times Roman,serif" font-size="14.00">Api::V1::SentMessagesController</text>
<polyline fill="none" stroke="black" points="369,-160.5 611,-160.5 "/>
<text text-anchor="start" x="377" y="-143.9" font-family="Times Roman,serif" font-size="14.00">create</text>
<text text-anchor="start" x="377" y="-126.9" font-family="Times Roman,serif" font-size="14.00">index</text>
<text text-anchor="start" x="377" y="-109.9" font-family="Times Roman,serif" font-size="14.00">sent_messages</text>
<text text-anchor="start" x="377" y="-92.9" font-family="Times Roman,serif" font-size="14.00">sent_messages=</text>
<polyline fill="none" stroke="black" points="369,-84.5 611,-84.5 "/>
<polyline fill="none" stroke="black" points="369,-60.5 611,-60.5 "/>
<text text-anchor="start" x="377" y="-43.9" font-family="Times Roman,serif" font-size="14.00">_layout</text>
<text text-anchor="start" x="377" y="-26.9" font-family="Times Roman,serif" font-size="14.00">message_params</text>
<text text-anchor="start" x="377" y="-9.9" font-family="Times Roman,serif" font-size="14.00">verify_sender</text>
</g>
<!-- Api::V1::UsersTeamController -->
<g id="node9" class="node"><title>Api::V1::UsersTeamController</title>
<polyline fill="none" stroke="black" points="13,-484.5 207,-484.5 "/>
<path fill="none" stroke="black" d="M207,-484.5C213,-484.5 219,-490.5 219,-496.5"/>
<polyline fill="none" stroke="black" points="219,-496.5 219,-605.5 "/>
<path fill="none" stroke="black" d="M219,-605.5C219,-611.5 213,-617.5 207,-617.5"/>
<polyline fill="none" stroke="black" points="207,-617.5 13,-617.5 "/>
<path fill="none" stroke="black" d="M13,-617.5C7,-617.5 1,-611.5 1,-605.5"/>
<polyline fill="none" stroke="black" points="1,-605.5 1,-496.5 "/>
<path fill="none" stroke="black" d="M1,-496.5C1,-490.5 7,-484.5 13,-484.5"/>
<text text-anchor="middle" x="110" y="-600.9" font-family="Times Roman,serif" font-size="14.00">Api::V1::UsersTeamController</text>
<polyline fill="none" stroke="black" points="1,-592.5 219,-592.5 "/>
<text text-anchor="start" x="9" y="-575.9" font-family="Times Roman,serif" font-size="14.00">index</text>
<text text-anchor="start" x="9" y="-558.9" font-family="Times Roman,serif" font-size="14.00">users_team</text>
<text text-anchor="start" x="9" y="-541.9" font-family="Times Roman,serif" font-size="14.00">users_team=</text>
<polyline fill="none" stroke="black" points="1,-533.5 219,-533.5 "/>
<polyline fill="none" stroke="black" points="1,-509.5 219,-509.5 "/>
<text text-anchor="start" x="9" y="-492.9" font-family="Times Roman,serif" font-size="14.00">_layout</text>
</g>
<!-- Api::V1::EmployeesController -->
<g id="node10" class="node"><title>Api::V1::EmployeesController</title>
<polyline fill="none" stroke="black" points="519,-231.5 713,-231.5 "/>
<path fill="none" stroke="black" d="M713,-231.5C719,-231.5 725,-237.5 725,-243.5"/>
<polyline fill="none" stroke="black" points="725,-243.5 725,-471.5 "/>
<path fill="none" stroke="black" d="M725,-471.5C725,-477.5 719,-483.5 713,-483.5"/>
<polyline fill="none" stroke="black" points="713,-483.5 519,-483.5 "/>
<path fill="none" stroke="black" d="M519,-483.5C513,-483.5 507,-477.5 507,-471.5"/>
<polyline fill="none" stroke="black" points="507,-471.5 507,-243.5 "/>
<path fill="none" stroke="black" d="M507,-243.5C507,-237.5 513,-231.5 519,-231.5"/>
<text text-anchor="middle" x="616" y="-466.9" font-family="Times Roman,serif" font-size="14.00">Api::V1::EmployeesController</text>
<polyline fill="none" stroke="black" points="507,-458.5 725,-458.5 "/>
<text text-anchor="start" x="515" y="-441.9" font-family="Times Roman,serif" font-size="14.00">create</text>
<text text-anchor="start" x="515" y="-424.9" font-family="Times Roman,serif" font-size="14.00">destroy</text>
<text text-anchor="start" x="515" y="-407.9" font-family="Times Roman,serif" font-size="14.00">employee</text>
<text text-anchor="start" x="515" y="-390.9" font-family="Times Roman,serif" font-size="14.00">employee=</text>
<text text-anchor="start" x="515" y="-373.9" font-family="Times Roman,serif" font-size="14.00">employees</text>
<text text-anchor="start" x="515" y="-356.9" font-family="Times Roman,serif" font-size="14.00">employees=</text>
<text text-anchor="start" x="515" y="-339.9" font-family="Times Roman,serif" font-size="14.00">index</text>
<text text-anchor="start" x="515" y="-322.9" font-family="Times Roman,serif" font-size="14.00">show</text>
<text text-anchor="start" x="515" y="-305.9" font-family="Times Roman,serif" font-size="14.00">update</text>
<polyline fill="none" stroke="black" points="507,-297.5 725,-297.5 "/>
<polyline fill="none" stroke="black" points="507,-273.5 725,-273.5 "/>
<text text-anchor="start" x="515" y="-256.9" font-family="Times Roman,serif" font-size="14.00">_layout</text>
<text text-anchor="start" x="515" y="-239.9" font-family="Times Roman,serif" font-size="14.00">employee_params</text>
</g>
<!-- Api::V1::BusinessesController -->
<g id="node11" class="node"><title>Api::V1::BusinessesController</title>
<polyline fill="none" stroke="black" points="542,-530.5 737,-530.5 "/>
<path fill="none" stroke="black" d="M737,-530.5C743,-530.5 749,-536.5 749,-542.5"/>
<polyline fill="none" stroke="black" points="749,-542.5 749,-770.5 "/>
<path fill="none" stroke="black" d="M749,-770.5C749,-776.5 743,-782.5 737,-782.5"/>
<polyline fill="none" stroke="black" points="737,-782.5 542,-782.5 "/>
<path fill="none" stroke="black" d="M542,-782.5C536,-782.5 530,-776.5 530,-770.5"/>
<polyline fill="none" stroke="black" points="530,-770.5 530,-542.5 "/>
<path fill="none" stroke="black" d="M530,-542.5C530,-536.5 536,-530.5 542,-530.5"/>
<text text-anchor="middle" x="639.5" y="-765.9" font-family="Times Roman,serif" font-size="14.00">Api::V1::BusinessesController</text>
<polyline fill="none" stroke="black" points="530,-757.5 749,-757.5 "/>
<text text-anchor="start" x="538" y="-740.9" font-family="Times Roman,serif" font-size="14.00">business</text>
<text text-anchor="start" x="538" y="-723.9" font-family="Times Roman,serif" font-size="14.00">business=</text>
<text text-anchor="start" x="538" y="-706.9" font-family="Times Roman,serif" font-size="14.00">businesses</text>
<text text-anchor="start" x="538" y="-689.9" font-family="Times Roman,serif" font-size="14.00">businesses=</text>
<text text-anchor="start" x="538" y="-672.9" font-family="Times Roman,serif" font-size="14.00">create</text>
<text text-anchor="start" x="538" y="-655.9" font-family="Times Roman,serif" font-size="14.00">destroy</text>
<text text-anchor="start" x="538" y="-638.9" font-family="Times Roman,serif" font-size="14.00">index</text>
<text text-anchor="start" x="538" y="-621.9" font-family="Times Roman,serif" font-size="14.00">show</text>
<text text-anchor="start" x="538" y="-604.9" font-family="Times Roman,serif" font-size="14.00">update</text>
<polyline fill="none" stroke="black" points="530,-596.5 749,-596.5 "/>
<polyline fill="none" stroke="black" points="530,-572.5 749,-572.5 "/>
<text text-anchor="start" x="538" y="-555.9" font-family="Times Roman,serif" font-size="14.00">_layout</text>
<text text-anchor="start" x="538" y="-538.9" font-family="Times Roman,serif" font-size="14.00">business_params</text>
</g>
<!-- Api::V2::MessagesCountersController -->
<g id="node12" class="node"><title>Api::V2::MessagesCountersController</title>
<polyline fill="none" stroke="black" points="772,-231.5 1020,-231.5 "/>
<path fill="none" stroke="black" d="M1020,-231.5C1026,-231.5 1032,-237.5 1032,-243.5"/>
<polyline fill="none" stroke="black" points="1032,-243.5 1032,-318.5 "/>
<path fill="none" stroke="black" d="M1032,-318.5C1032,-324.5 1026,-330.5 1020,-330.5"/>
<polyline fill="none" stroke="black" points="1020,-330.5 772,-330.5 "/>
<path fill="none" stroke="black" d="M772,-330.5C766,-330.5 760,-324.5 760,-318.5"/>
<polyline fill="none" stroke="black" points="760,-318.5 760,-243.5 "/>
<path fill="none" stroke="black" d="M760,-243.5C760,-237.5 766,-231.5 772,-231.5"/>
<text text-anchor="middle" x="896" y="-313.9" font-family="Times Roman,serif" font-size="14.00">Api::V2::MessagesCountersController</text>
<polyline fill="none" stroke="black" points="760,-305.5 1032,-305.5 "/>
<text text-anchor="start" x="768" y="-288.9" font-family="Times Roman,serif" font-size="14.00">index</text>
<polyline fill="none" stroke="black" points="760,-280.5 1032,-280.5 "/>
<polyline fill="none" stroke="black" points="760,-256.5 1032,-256.5 "/>
<text text-anchor="start" x="768" y="-239.9" font-family="Times Roman,serif" font-size="14.00">_layout</text>
</g>
<!-- ApplicationController -->
<g id="node13" class="node"><title>ApplicationController</title>
<polyline fill="none" stroke="black" points="772,-369.5 990,-369.5 "/>
<path fill="none" stroke="black" d="M990,-369.5C996,-369.5 1002,-375.5 1002,-381.5"/>
<polyline fill="none" stroke="black" points="1002,-381.5 1002,-474.5 "/>
<path fill="none" stroke="black" d="M1002,-474.5C1002,-480.5 996,-486.5 990,-486.5"/>
<polyline fill="none" stroke="black" points="990,-486.5 772,-486.5 "/>
<path fill="none" stroke="black" d="M772,-486.5C766,-486.5 760,-480.5 760,-474.5"/>
<polyline fill="none" stroke="black" points="760,-474.5 760,-381.5 "/>
<path fill="none" stroke="black" d="M760,-381.5C760,-375.5 766,-369.5 772,-369.5"/>
<text text-anchor="middle" x="881" y="-469.9" font-family="Times Roman,serif" font-size="14.00">ApplicationController</text>
<polyline fill="none" stroke="black" points="760,-461.5 1002,-461.5 "/>
<text text-anchor="start" x="768" y="-444.9" font-family="Times Roman,serif" font-size="14.00">current_employee</text>
<polyline fill="none" stroke="black" points="760,-436.5 1002,-436.5 "/>
<text text-anchor="start" x="768" y="-419.9" font-family="Times Roman,serif" font-size="14.00">configure_permitted_parameters</text>
<text text-anchor="start" x="768" y="-402.9" font-family="Times Roman,serif" font-size="14.00">layout_by_resource</text>
<polyline fill="none" stroke="black" points="760,-394.5 1002,-394.5 "/>
<text text-anchor="start" x="768" y="-377.9" font-family="Times Roman,serif" font-size="14.00">_layout</text>
</g>
</g>
</svg>
