<?xml version="1.0" encoding="UTF-8" standalone="no"?>
<!DOCTYPE svg PUBLIC "-//W3C//DTD SVG 1.1//EN"
 "http://www.w3.org/Graphics/SVG/1.1/DTD/svg11.dtd">
<!-- Generated by graphviz version 2.26.3 (20100126.1600)
 -->
<!-- Title: models_diagram Pages: 1 -->
<svg width="1085pt" height="986pt"
 viewBox="0.00 0.00 1085.00 986.00" xmlns="http://www.w3.org/2000/svg" xmlns:xlink="http://www.w3.org/1999/xlink">
<g id="graph1" class="graph" transform="scale(1 1) rotate(0) translate(4 982)">
<title>models_diagram</title>
<polygon fill="white" stroke="white" points="-4,5 -4,-982 1082,-982 1082,5 -4,5"/>
<!-- _diagram_info -->
<g id="node1" class="node"><title>_diagram_info</title>
<text text-anchor="start" x="8" y="-870.3" font-family="Times Roman,serif" font-size="13.00">Models diagram</text>
<text text-anchor="start" x="8" y="-854.3" font-family="Times Roman,serif" font-size="13.00">Date: May 21 2015 &#45; 08:17</text>
<text text-anchor="start" x="8" y="-838.3" font-family="Times Roman,serif" font-size="13.00">Migration version: 20150430174757</text>
<text text-anchor="start" x="8" y="-822.3" font-family="Times Roman,serif" font-size="13.00">Generated by RailRoady 1.3.0</text>
<text text-anchor="start" x="8" y="-806.3" font-family="Times Roman,serif" font-size="13.00">http://railroady.prestonlee.com</text>
</g>
<!-- Person -->
<g id="node2" class="node"><title>Person</title>
<polyline fill="none" stroke="black" points="756.5,-723.5 901.5,-723.5 "/>
<path fill="none" stroke="black" d="M901.5,-723.5C907.5,-723.5 913.5,-729.5 913.5,-735.5"/>
<polyline fill="none" stroke="black" points="913.5,-735.5 913.5,-948.5 "/>
<path fill="none" stroke="black" d="M913.5,-948.5C913.5,-954.5 907.5,-960.5 901.5,-960.5"/>
<polyline fill="none" stroke="black" points="901.5,-960.5 756.5,-960.5 "/>
<path fill="none" stroke="black" d="M756.5,-960.5C750.5,-960.5 744.5,-954.5 744.5,-948.5"/>
<polyline fill="none" stroke="black" points="744.5,-948.5 744.5,-735.5 "/>
<path fill="none" stroke="black" d="M744.5,-735.5C744.5,-729.5 750.5,-723.5 756.5,-723.5"/>
<text text-anchor="middle" x="829" y="-943.9" font-family="Times Roman,serif" font-size="14.00">Person</text>
<polyline fill="none" stroke="black" points="744.5,-935.5 913.5,-935.5 "/>
<text text-anchor="start" x="752.5" y="-918.9" font-family="Times Roman,serif" font-size="14.00">id :integer</text>
<text text-anchor="start" x="752.5" y="-901.9" font-family="Times Roman,serif" font-size="14.00">firstname :string</text>
<text text-anchor="start" x="752.5" y="-884.9" font-family="Times Roman,serif" font-size="14.00">lastname :string</text>
<text text-anchor="start" x="752.5" y="-867.9" font-family="Times Roman,serif" font-size="14.00">pesel :string</text>
<text text-anchor="start" x="752.5" y="-850.9" font-family="Times Roman,serif" font-size="14.00">email :string</text>
<text text-anchor="start" x="752.5" y="-833.9" font-family="Times Roman,serif" font-size="14.00">phone_number :string</text>
<text text-anchor="start" x="752.5" y="-816.9" font-family="Times Roman,serif" font-size="14.00">city :string</text>
<text text-anchor="start" x="752.5" y="-799.9" font-family="Times Roman,serif" font-size="14.00">address :string</text>
<text text-anchor="start" x="752.5" y="-782.9" font-family="Times Roman,serif" font-size="14.00">postcode :string</text>
<text text-anchor="start" x="752.5" y="-765.9" font-family="Times Roman,serif" font-size="14.00">date_of_birth :date</text>
<text text-anchor="start" x="752.5" y="-748.9" font-family="Times Roman,serif" font-size="14.00">created_at :datetime</text>
<text text-anchor="start" x="752.5" y="-731.9" font-family="Times Roman,serif" font-size="14.00">updated_at :datetime</text>
</g>
<!-- Customer -->
<g id="node5" class="node"><title>Customer</title>
<polyline fill="none" stroke="black" points="678,-438.5 850,-438.5 "/>
<path fill="none" stroke="black" d="M850,-438.5C856,-438.5 862,-444.5 862,-450.5"/>
<polyline fill="none" stroke="black" points="862,-450.5 862,-561.5 "/>
<path fill="none" stroke="black" d="M862,-561.5C862,-567.5 856,-573.5 850,-573.5"/>
<polyline fill="none" stroke="black" points="850,-573.5 678,-573.5 "/>
<path fill="none" stroke="black" d="M678,-573.5C672,-573.5 666,-567.5 666,-561.5"/>
<polyline fill="none" stroke="black" points="666,-561.5 666,-450.5 "/>
<path fill="none" stroke="black" d="M666,-450.5C666,-444.5 672,-438.5 678,-438.5"/>
<text text-anchor="middle" x="764" y="-556.9" font-family="Times Roman,serif" font-size="14.00">Customer</text>
<polyline fill="none" stroke="black" points="666,-548.5 862,-548.5 "/>
<text text-anchor="start" x="674" y="-531.9" font-family="Times Roman,serif" font-size="14.00">id :integer</text>
<text text-anchor="start" x="674" y="-514.9" font-family="Times Roman,serif" font-size="14.00">customerable_id :integer</text>
<text text-anchor="start" x="674" y="-497.9" font-family="Times Roman,serif" font-size="14.00">customerable_type :string</text>
<text text-anchor="start" x="674" y="-480.9" font-family="Times Roman,serif" font-size="14.00">created_at :datetime</text>
<text text-anchor="start" x="674" y="-463.9" font-family="Times Roman,serif" font-size="14.00">updated_at :datetime</text>
<text text-anchor="start" x="674" y="-446.9" font-family="Times Roman,serif" font-size="14.00">team_id :integer</text>
</g>
<!-- Person&#45;&gt;Customer -->
<g id="edge2" class="edge"><title>Person&#45;&gt;Customer</title>
<path fill="none" stroke="#e3e622" d="M804.451,-715.101C795.787,-670.315 786.32,-621.376 778.724,-582.11"/>
<ellipse fill="none" stroke="#e3e622" cx="805.232" cy="-719.139" rx="4.00001" ry="4.00001"/>
<ellipse fill="#e3e622" stroke="#e3e622" cx="777.892" cy="-577.81" rx="4.00001" ry="4.00001"/>
</g>
<!-- Employee -->
<g id="node3" class="node"><title>Employee</title>
<polyline fill="none" stroke="black" points="406,-345 636,-345 "/>
<path fill="none" stroke="black" d="M636,-345C642,-345 648,-351 648,-357"/>
<polyline fill="none" stroke="black" points="648,-357 648,-655 "/>
<path fill="none" stroke="black" d="M648,-655C648,-661 642,-667 636,-667"/>
<polyline fill="none" stroke="black" points="636,-667 406,-667 "/>
<path fill="none" stroke="black" d="M406,-667C400,-667 394,-661 394,-655"/>
<polyline fill="none" stroke="black" points="394,-655 394,-357 "/>
<path fill="none" stroke="black" d="M394,-357C394,-351 400,-345 406,-345"/>
<text text-anchor="middle" x="521" y="-650.4" font-family="Times Roman,serif" font-size="14.00">Employee</text>
<polyline fill="none" stroke="black" points="394,-642 648,-642 "/>
<text text-anchor="start" x="402" y="-625.4" font-family="Times Roman,serif" font-size="14.00">id :integer</text>
<text text-anchor="start" x="402" y="-608.4" font-family="Times Roman,serif" font-size="14.00">email :string</text>
<text text-anchor="start" x="402" y="-591.4" font-family="Times Roman,serif" font-size="14.00">encrypted_password :string</text>
<text text-anchor="start" x="402" y="-574.4" font-family="Times Roman,serif" font-size="14.00">reset_password_token :string</text>
<text text-anchor="start" x="402" y="-557.4" font-family="Times Roman,serif" font-size="14.00">reset_password_sent_at :datetime</text>
<text text-anchor="start" x="402" y="-540.4" font-family="Times Roman,serif" font-size="14.00">remember_created_at :datetime</text>
<text text-anchor="start" x="402" y="-523.4" font-family="Times Roman,serif" font-size="14.00">sign_in_count :integer</text>
<text text-anchor="start" x="402" y="-506.4" font-family="Times Roman,serif" font-size="14.00">current_sign_in_at :datetime</text>
<text text-anchor="start" x="402" y="-489.4" font-family="Times Roman,serif" font-size="14.00">last_sign_in_at :datetime</text>
<text text-anchor="start" x="402" y="-472.4" font-family="Times Roman,serif" font-size="14.00">current_sign_in_ip :inet</text>
<text text-anchor="start" x="402" y="-455.4" font-family="Times Roman,serif" font-size="14.00">last_sign_in_ip :inet</text>
<text text-anchor="start" x="402" y="-438.4" font-family="Times Roman,serif" font-size="14.00">created_at :datetime</text>
<text text-anchor="start" x="402" y="-421.4" font-family="Times Roman,serif" font-size="14.00">updated_at :datetime</text>
<text text-anchor="start" x="402" y="-404.4" font-family="Times Roman,serif" font-size="14.00">avatar :string</text>
<text text-anchor="start" x="402" y="-387.4" font-family="Times Roman,serif" font-size="14.00">firstname :string</text>
<text text-anchor="start" x="402" y="-370.4" font-family="Times Roman,serif" font-size="14.00">lastname :string</text>
<text text-anchor="start" x="402" y="-353.4" font-family="Times Roman,serif" font-size="14.00">team_id :integer</text>
</g>
<!-- Message -->
<g id="node4" class="node"><title>Message</title>
<polyline fill="none" stroke="black" points="366.5,-1 507.5,-1 "/>
<path fill="none" stroke="black" d="M507.5,-1C513.5,-1 519.5,-7 519.5,-13"/>
<polyline fill="none" stroke="black" points="519.5,-13 519.5,-277 "/>
<path fill="none" stroke="black" d="M519.5,-277C519.5,-283 513.5,-289 507.5,-289"/>
<polyline fill="none" stroke="black" points="507.5,-289 366.5,-289 "/>
<path fill="none" stroke="black" d="M366.5,-289C360.5,-289 354.5,-283 354.5,-277"/>
<polyline fill="none" stroke="black" points="354.5,-277 354.5,-13 "/>
<path fill="none" stroke="black" d="M354.5,-13C354.5,-7 360.5,-1 366.5,-1"/>
<text text-anchor="middle" x="437" y="-272.4" font-family="Times Roman,serif" font-size="14.00">Message</text>
<polyline fill="none" stroke="black" points="354.5,-264 519.5,-264 "/>
<text text-anchor="start" x="362.5" y="-247.4" font-family="Times Roman,serif" font-size="14.00">id :integer</text>
<text text-anchor="start" x="362.5" y="-230.4" font-family="Times Roman,serif" font-size="14.00">sender_id :integer</text>
<text text-anchor="start" x="362.5" y="-213.4" font-family="Times Roman,serif" font-size="14.00">sender_type :string</text>
<text text-anchor="start" x="362.5" y="-196.4" font-family="Times Roman,serif" font-size="14.00">recipient_id :integer</text>
<text text-anchor="start" x="362.5" y="-179.4" font-family="Times Roman,serif" font-size="14.00">recipient_type :string</text>
<text text-anchor="start" x="362.5" y="-162.4" font-family="Times Roman,serif" font-size="14.00">subject :string</text>
<text text-anchor="start" x="362.5" y="-145.4" font-family="Times Roman,serif" font-size="14.00">body :text</text>
<text text-anchor="start" x="362.5" y="-128.4" font-family="Times Roman,serif" font-size="14.00">from :string</text>
<text text-anchor="start" x="362.5" y="-111.4" font-family="Times Roman,serif" font-size="14.00">to :string</text>
<text text-anchor="start" x="362.5" y="-94.4" font-family="Times Roman,serif" font-size="14.00">date :datetime</text>
<text text-anchor="start" x="362.5" y="-77.4" font-family="Times Roman,serif" font-size="14.00">message_id :string</text>
<text text-anchor="start" x="362.5" y="-60.4" font-family="Times Roman,serif" font-size="14.00">in_reply_to :string</text>
<text text-anchor="start" x="362.5" y="-43.4" font-family="Times Roman,serif" font-size="14.00">references :text</text>
<text text-anchor="start" x="362.5" y="-26.4" font-family="Times Roman,serif" font-size="14.00">created_at :datetime</text>
<text text-anchor="start" x="362.5" y="-9.4" font-family="Times Roman,serif" font-size="14.00">updated_at :datetime</text>
</g>
<!-- Employee&#45;&gt;Message -->
<g id="edge4" class="edge"><title>Employee&#45;&gt;Message</title>
<path fill="none" stroke="#bb6024" d="M389.943,-359.373C384.108,-348.516 379.026,-337.355 375,-326 371.935,-317.357 370.253,-308.472 369.69,-299.499"/>
<ellipse fill="none" stroke="#bb6024" cx="391.939" cy="-362.967" rx="4.00002" ry="4.00002"/>
<polygon fill="#bb6024" stroke="#bb6024" points="369.687,-299.338 374.016,-289.262 369.602,-294.339 369.516,-289.339 369.516,-289.339 369.516,-289.339 369.602,-294.339 365.017,-289.416 369.687,-299.338 369.687,-299.338"/>
<text text-anchor="middle" x="427" y="-312.9" font-family="Times Roman,serif" font-size="14.00">sent_messages</text>
</g>
<!-- Employee&#45;&gt;Message -->
<g id="edge6" class="edge"><title>Employee&#45;&gt;Message</title>
<path fill="none" stroke="#9b141e" d="M485.657,-336.974C483.446,-327.161 481.218,-317.448 479,-308 478.327,-305.133 477.642,-302.239 476.946,-299.324"/>
<ellipse fill="none" stroke="#9b141e" cx="486.55" cy="-340.958" rx="4.00001" ry="4.00001"/>
<polygon fill="#9b141e" stroke="#9b141e" points="476.885,-299.07 478.921,-288.294 475.716,-294.208 474.546,-289.347 474.546,-289.347 474.546,-289.347 475.716,-294.208 470.171,-290.399 476.885,-299.07 476.885,-299.07"/>
<text text-anchor="middle" x="548" y="-312.9" font-family="Times Roman,serif" font-size="14.00">received_messages</text>
</g>
<!-- Customer&#45;&gt;Message -->
<g id="edge8" class="edge"><title>Customer&#45;&gt;Message</title>
<path fill="none" stroke="#4cf90f" d="M720.2,-431.609C702.074,-403.11 679.939,-370.984 657,-344 618.218,-298.379 569.285,-253.151 527.421,-217.368"/>
<ellipse fill="none" stroke="#4cf90f" cx="722.345" cy="-435.007" rx="4.00002" ry="4.00002"/>
<polygon fill="#4cf90f" stroke="#4cf90f" points="527.311,-217.275 522.605,-207.37 523.501,-214.037 519.691,-210.799 519.691,-210.799 519.691,-210.799 523.501,-214.037 516.777,-214.228 527.311,-217.275 527.311,-217.275"/>
<text text-anchor="middle" x="693" y="-312.9" font-family="Times Roman,serif" font-size="14.00">sent_messages</text>
</g>
<!-- Customer&#45;&gt;Message -->
<g id="edge10" class="edge"><title>Customer&#45;&gt;Message</title>
<path fill="none" stroke="#47000f" d="M774.938,-430.1C776.716,-390.681 772.37,-343.478 749,-308 699.05,-232.172 601.984,-189.457 529.318,-166.96"/>
<ellipse fill="none" stroke="#47000f" cx="774.696" cy="-434.393" rx="4" ry="4"/>
<polygon fill="#47000f" stroke="#47000f" points="529.258,-166.942 520.985,-159.743 524.471,-165.497 519.684,-164.051 519.684,-164.051 519.684,-164.051 524.471,-165.497 518.384,-168.359 529.258,-166.942 529.258,-166.942"/>
<text text-anchor="middle" x="822" y="-312.9" font-family="Times Roman,serif" font-size="14.00">received_messages</text>
</g>
<!-- Team -->
<g id="node6" class="node"><title>Team</title>
<polyline fill="none" stroke="black" points="279.5,-791.5 420.5,-791.5 "/>
<path fill="none" stroke="black" d="M420.5,-791.5C426.5,-791.5 432.5,-797.5 432.5,-803.5"/>
<polyline fill="none" stroke="black" points="432.5,-803.5 432.5,-880.5 "/>
<path fill="none" stroke="black" d="M432.5,-880.5C432.5,-886.5 426.5,-892.5 420.5,-892.5"/>
<polyline fill="none" stroke="black" points="420.5,-892.5 279.5,-892.5 "/>
<path fill="none" stroke="black" d="M279.5,-892.5C273.5,-892.5 267.5,-886.5 267.5,-880.5"/>
<polyline fill="none" stroke="black" points="267.5,-880.5 267.5,-803.5 "/>
<path fill="none" stroke="black" d="M267.5,-803.5C267.5,-797.5 273.5,-791.5 279.5,-791.5"/>
<text text-anchor="middle" x="350" y="-875.9" font-family="Times Roman,serif" font-size="14.00">Team</text>
<polyline fill="none" stroke="black" points="267.5,-867.5 432.5,-867.5 "/>
<text text-anchor="start" x="275.5" y="-850.9" font-family="Times Roman,serif" font-size="14.00">id :integer</text>
<text text-anchor="start" x="275.5" y="-833.9" font-family="Times Roman,serif" font-size="14.00">team_name :string</text>
<text text-anchor="start" x="275.5" y="-816.9" font-family="Times Roman,serif" font-size="14.00">created_at :datetime</text>
<text text-anchor="start" x="275.5" y="-799.9" font-family="Times Roman,serif" font-size="14.00">updated_at :datetime</text>
</g>
<!-- Team&#45;&gt;Employee -->
<g id="edge12" class="edge"><title>Team&#45;&gt;Employee</title>
<path fill="none" stroke="#c5a03a" d="M379.458,-784.117C394.805,-753.962 414.457,-715.347 434.202,-676.551"/>
<ellipse fill="none" stroke="#c5a03a" cx="377.6" cy="-787.769" rx="4.00002" ry="4.00002"/>
<polygon fill="#c5a03a" stroke="#c5a03a" points="434.414,-676.133 442.961,-669.262 436.682,-671.677 438.95,-667.221 438.95,-667.221 438.95,-667.221 436.682,-671.677 434.94,-665.18 434.414,-676.133 434.414,-676.133"/>
</g>
<!-- Team&#45;&gt;Message -->
<g id="edge16" class="edge"><title>Team&#45;&gt;Message</title>
<path fill="none" stroke="#ad6b3f" d="M323.441,-783.999C308.189,-756.649 286.549,-725.758 259,-706 206.259,-668.175 157.473,-719.519 118,-668 30.4212,-553.694 48.1401,-469.919 118,-344 165.906,-257.652 268.59,-203.864 344.582,-174.308"/>
<ellipse fill="none" stroke="#ad6b3f" cx="325.466" cy="-787.722" rx="4.00002" ry="4.00002"/>
<polygon fill="#ad6b3f" stroke="#ad6b3f" points="344.836,-174.211 355.783,-174.853 349.508,-172.43 354.18,-170.648 354.18,-170.648 354.18,-170.648 349.508,-172.43 352.576,-166.443 344.836,-174.211 344.836,-174.211"/>
<text text-anchor="middle" x="170" y="-501.9" font-family="Times Roman,serif" font-size="14.00">sent_messages</text>
</g>
<!-- Team&#45;&gt;Message -->
<g id="edge18" class="edge"><title>Team&#45;&gt;Message</title>
<path fill="none" stroke="#21d1af" d="M308.153,-784.526C287.12,-752.059 263.843,-709.719 253,-668 234.888,-598.315 226.754,-411.046 253,-344 272.296,-294.708 310.166,-250.309 346.558,-216.021"/>
<ellipse fill="none" stroke="#21d1af" cx="310.407" cy="-787.957" rx="4.00002" ry="4.00002"/>
<polygon fill="#21d1af" stroke="#21d1af" points="346.956,-215.653 357.352,-212.162 350.625,-212.256 354.295,-208.86 354.295,-208.86 354.295,-208.86 350.625,-212.256 351.238,-205.558 346.956,-215.653 346.956,-215.653"/>
<text text-anchor="middle" x="319" y="-501.9" font-family="Times Roman,serif" font-size="14.00">received_messages</text>
</g>
<!-- Team&#45;&gt;Customer -->
<g id="edge14" class="edge"><title>Team&#45;&gt;Customer</title>
<path fill="none" stroke="#634da1" d="M420.024,-786.327C456.147,-759.484 501.812,-728.347 546,-706 592.532,-682.467 615.757,-699.907 657,-668 686.117,-645.474 709.865,-612.682 727.526,-582.484"/>
<ellipse fill="none" stroke="#634da1" cx="416.596" cy="-788.891" rx="4.00002" ry="4.00002"/>
<polygon fill="#634da1" stroke="#634da1" points="727.622,-582.315 736.486,-575.859 730.1,-577.972 732.577,-573.629 732.577,-573.629 732.577,-573.629 730.1,-577.972 728.669,-571.399 727.622,-582.315 727.622,-582.315"/>
</g>
<!-- MessageAsGriddler -->
<g id="node7" class="node"><title>MessageAsGriddler</title>
<polygon fill="none" stroke="black" points="930.5,-817 930.5,-867 1077.5,-867 1077.5,-817 930.5,-817"/>
<text text-anchor="middle" x="1004" y="-850.4" font-family="Times Roman,serif" font-size="14.00">MessageAsGriddler</text>
<polyline fill="none" stroke="black" points="930.5,-842 1077.5,-842 "/>
<text text-anchor="middle" x="1004" y="-825.4" font-family="Times Roman,serif" font-size="14.00"> </text>
</g>
<!-- Business -->
<g id="node8" class="node"><title>Business</title>
<polyline fill="none" stroke="black" points="566.5,-706.5 715.5,-706.5 "/>
<path fill="none" stroke="black" d="M715.5,-706.5C721.5,-706.5 727.5,-712.5 727.5,-718.5"/>
<polyline fill="none" stroke="black" points="727.5,-718.5 727.5,-965.5 "/>
<path fill="none" stroke="black" d="M727.5,-965.5C727.5,-971.5 721.5,-977.5 715.5,-977.5"/>
<polyline fill="none" stroke="black" points="715.5,-977.5 566.5,-977.5 "/>
<path fill="none" stroke="black" d="M566.5,-977.5C560.5,-977.5 554.5,-971.5 554.5,-965.5"/>
<polyline fill="none" stroke="black" points="554.5,-965.5 554.5,-718.5 "/>
<path fill="none" stroke="black" d="M554.5,-718.5C554.5,-712.5 560.5,-706.5 566.5,-706.5"/>
<text text-anchor="middle" x="641" y="-960.9" font-family="Times Roman,serif" font-size="14.00">Business</text>
<polyline fill="none" stroke="black" points="554.5,-952.5 727.5,-952.5 "/>
<text text-anchor="start" x="562.5" y="-935.9" font-family="Times Roman,serif" font-size="14.00">id :integer</text>
<text text-anchor="start" x="562.5" y="-918.9" font-family="Times Roman,serif" font-size="14.00">company_name :string</text>
<text text-anchor="start" x="562.5" y="-901.9" font-family="Times Roman,serif" font-size="14.00">industry :string</text>
<text text-anchor="start" x="562.5" y="-884.9" font-family="Times Roman,serif" font-size="14.00">email :string</text>
<text text-anchor="start" x="562.5" y="-867.9" font-family="Times Roman,serif" font-size="14.00">krs :string</text>
<text text-anchor="start" x="562.5" y="-850.9" font-family="Times Roman,serif" font-size="14.00">nip :string</text>
<text text-anchor="start" x="562.5" y="-833.9" font-family="Times Roman,serif" font-size="14.00">regon :string</text>
<text text-anchor="start" x="562.5" y="-816.9" font-family="Times Roman,serif" font-size="14.00">contacts :string</text>
<text text-anchor="start" x="562.5" y="-799.9" font-family="Times Roman,serif" font-size="14.00">created_at :datetime</text>
<text text-anchor="start" x="562.5" y="-782.9" font-family="Times Roman,serif" font-size="14.00">updated_at :datetime</text>
<text text-anchor="start" x="562.5" y="-765.9" font-family="Times Roman,serif" font-size="14.00">phone_number :string</text>
<text text-anchor="start" x="562.5" y="-748.9" font-family="Times Roman,serif" font-size="14.00">city :string</text>
<text text-anchor="start" x="562.5" y="-731.9" font-family="Times Roman,serif" font-size="14.00">address :string</text>
<text text-anchor="start" x="562.5" y="-714.9" font-family="Times Roman,serif" font-size="14.00">postcode :string</text>
</g>
<!-- Business&#45;&gt;Customer -->
<g id="edge20" class="edge"><title>Business&#45;&gt;Customer</title>
<path fill="none" stroke="#d0c105" d="M693.517,-698.538C708.241,-658.317 723.667,-616.178 736.321,-581.612"/>
<ellipse fill="none" stroke="#d0c105" cx="692.049" cy="-702.548" rx="4.00001" ry="4.00001"/>
<ellipse fill="#d0c105" stroke="#d0c105" cx="737.768" cy="-577.659" rx="4.00001" ry="4.00001"/>
</g>
</g>
</svg>
