<?xml version="1.0" encoding="UTF-8" standalone="no"?>
<!DOCTYPE svg PUBLIC "-//W3C//DTD SVG 1.1//EN"
 "http://www.w3.org/Graphics/SVG/1.1/DTD/svg11.dtd">
<!-- Generated by graphviz version 2.26.3 (20100126.1600)
 -->
<!-- Title: models_diagram Pages: 1 -->
<svg width="819pt" height="260pt"
 viewBox="0.00 0.00 819.00 260.00" xmlns="http://www.w3.org/2000/svg" xmlns:xlink="http://www.w3.org/1999/xlink">
<g id="graph1" class="graph" transform="scale(1 1) rotate(0) translate(4 256)">
<title>models_diagram</title>
<polygon fill="white" stroke="white" points="-4,5 -4,-256 816,-256 816,5 -4,5"/>
<!-- _diagram_info -->
<g id="node1" class="node"><title>_diagram_info</title>
<text text-anchor="start" x="8" y="-236.3" font-family="Times Roman,serif" font-size="13.00">Models diagram</text>
<text text-anchor="start" x="8" y="-220.3" font-family="Times Roman,serif" font-size="13.00">Date: May 21 2015 &#45; 08:17</text>
<text text-anchor="start" x="8" y="-204.3" font-family="Times Roman,serif" font-size="13.00">Migration version: 20150430174757</text>
<text text-anchor="start" x="8" y="-188.3" font-family="Times Roman,serif" font-size="13.00">Generated by RailRoady 1.3.0</text>
<text text-anchor="start" x="8" y="-172.3" font-family="Times Roman,serif" font-size="13.00">http://railroady.prestonlee.com</text>
</g>
<!-- Person -->
<g id="node2" class="node"><title>Person</title>
<ellipse fill="none" stroke="black" cx="603" cy="-208" rx="43.7776" ry="18"/>
<text text-anchor="middle" x="603" y="-203.9" font-family="Times Roman,serif" font-size="14.00">Person</text>
</g>
<!-- Customer -->
<g id="node5" class="node"><title>Customer</title>
<ellipse fill="none" stroke="black" cx="558" cy="-108" rx="57.1737" ry="18"/>
<text text-anchor="middle" x="558" y="-103.9" font-family="Times Roman,serif" font-size="14.00">Customer</text>
</g>
<!-- Person&#45;&gt;Customer -->
<g id="edge2" class="edge"><title>Person&#45;&gt;Customer</title>
<path fill="none" stroke="#9c6d0c" d="M591.5,-182.445C584.744,-167.431 576.232,-148.516 569.48,-133.51"/>
<ellipse fill="none" stroke="#9c6d0c" cx="593.313" cy="-186.474" rx="4.00002" ry="4.00002"/>
<ellipse fill="#9c6d0c" stroke="#9c6d0c" cx="567.769" cy="-129.708" rx="4.00002" ry="4.00002"/>
</g>
<!-- Employee -->
<g id="node3" class="node"><title>Employee</title>
<ellipse fill="none" stroke="black" cx="426" cy="-108" rx="57.1737" ry="18"/>
<text text-anchor="middle" x="426" y="-103.9" font-family="Times Roman,serif" font-size="14.00">Employee</text>
</g>
<!-- Message -->
<g id="node4" class="node"><title>Message</title>
<ellipse fill="none" stroke="black" cx="327" cy="-18" rx="52.1162" ry="18"/>
<text text-anchor="middle" x="327" y="-13.9" font-family="Times Roman,serif" font-size="14.00">Message</text>
</g>
<!-- Employee&#45;&gt;Message -->
<g id="edge4" class="edge"><title>Employee&#45;&gt;Message</title>
<path fill="none" stroke="#542737" d="M373.812,-94.4476C367.485,-92.8999 361.104,-91.3832 355,-90 315.217,-80.9848 290.862,-103.546 265,-72 254.211,-58.8397 266.917,-46.2256 283.575,-36.5031"/>
<ellipse fill="none" stroke="#542737" cx="377.888" cy="-95.4562" rx="4.00001" ry="4.00001"/>
<polygon fill="#542737" stroke="#542737" points="283.729,-36.4203 294.669,-35.6608 288.136,-34.0576 292.543,-31.6949 292.543,-31.6949 292.543,-31.6949 288.136,-34.0576 290.416,-27.729 283.729,-36.4203 283.729,-36.4203"/>
<text text-anchor="middle" x="317" y="-58.9" font-family="Times Roman,serif" font-size="14.00">sent_messages</text>
</g>
<!-- Employee&#45;&gt;Message -->
<g id="edge6" class="edge"><title>Employee&#45;&gt;Message</title>
<path fill="none" stroke="#3d677b" d="M402.206,-84.9551C392.078,-75.2781 380.069,-63.9758 369,-54 364.43,-49.8811 359.517,-45.5693 354.719,-41.4191"/>
<ellipse fill="none" stroke="#3d677b" cx="405.356" cy="-87.9757" rx="4.00002" ry="4.00002"/>
<polygon fill="#3d677b" stroke="#3d677b" points="354.421,-41.1634 349.765,-31.2352 350.627,-37.9065 346.833,-34.6496 346.833,-34.6496 346.833,-34.6496 350.627,-37.9065 343.902,-38.064 354.421,-41.1634 354.421,-41.1634"/>
<text text-anchor="middle" x="454" y="-58.9" font-family="Times Roman,serif" font-size="14.00">received_messages</text>
</g>
<!-- Customer&#45;&gt;Message -->
<g id="edge8" class="edge"><title>Customer&#45;&gt;Message</title>
<path fill="none" stroke="#fbba4f" d="M547.562,-82.5222C542.049,-72.1282 534.263,-60.9436 524,-54 502.178,-39.2365 437.147,-29.336 387.717,-23.7149"/>
<ellipse fill="none" stroke="#fbba4f" cx="549.414" cy="-86.2893" rx="4.00002" ry="4.00002"/>
<polygon fill="#fbba4f" stroke="#fbba4f" points="387.682,-23.7111 378.236,-18.141 382.712,-23.1625 377.742,-22.6139 377.742,-22.6139 377.742,-22.6139 382.712,-23.1625 377.249,-27.0867 387.682,-23.7111 387.682,-23.7111"/>
<text text-anchor="middle" x="592" y="-58.9" font-family="Times Roman,serif" font-size="14.00">sent_messages</text>
</g>
<!-- Customer&#45;&gt;Message -->
<g id="edge10" class="edge"><title>Customer&#45;&gt;Message</title>
<path fill="none" stroke="#0d0449" d="M612.124,-94.9028C639.572,-85.7443 664.042,-71.9417 648,-54 631.079,-35.0749 477.488,-24.9108 389.039,-20.5826"/>
<ellipse fill="none" stroke="#0d0449" cx="608.149" cy="-96.158" rx="4.00001" ry="4.00001"/>
<polygon fill="#0d0449" stroke="#0d0449" points="388.84,-20.5732 379.066,-15.6008 383.846,-20.3344 378.851,-20.0957 378.851,-20.0957 378.851,-20.0957 383.846,-20.3344 378.636,-24.5906 388.84,-20.5732 388.84,-20.5732"/>
<text text-anchor="middle" x="719" y="-58.9" font-family="Times Roman,serif" font-size="14.00">received_messages</text>
</g>
<!-- Team -->
<g id="node6" class="node"><title>Team</title>
<ellipse fill="none" stroke="black" cx="305" cy="-208" rx="36.8288" ry="18"/>
<text text-anchor="middle" x="305" y="-203.9" font-family="Times Roman,serif" font-size="14.00">Team</text>
</g>
<!-- Team&#45;&gt;Employee -->
<g id="edge12" class="edge"><title>Team&#45;&gt;Employee</title>
<path fill="none" stroke="#f3283a" d="M321.62,-184.187C331.464,-171.231 344.77,-155.542 359,-144 366.535,-137.888 375.264,-132.319 383.881,-127.484"/>
<ellipse fill="none" stroke="#f3283a" cx="319.186" cy="-187.465" rx="4.00002" ry="4.00002"/>
<polygon fill="#f3283a" stroke="#f3283a" points="383.953,-127.446 394.892,-126.686 388.359,-125.083 392.766,-122.72 392.766,-122.72 392.766,-122.72 388.359,-125.083 390.639,-118.755 383.953,-127.446 383.953,-127.446"/>
</g>
<!-- Team&#45;&gt;Message -->
<g id="edge16" class="edge"><title>Team&#45;&gt;Message</title>
<path fill="none" stroke="#8d6342" d="M285.862,-185.193C278.242,-177.417 268.924,-169.346 259,-164 187.885,-125.692 45.4176,-155.274 93,-90 113.96,-61.2462 207.595,-39.3061 269.878,-27.5663"/>
<ellipse fill="none" stroke="#8d6342" cx="288.603" cy="-188.114" rx="4.00002" ry="4.00002"/>
<polygon fill="#8d6342" stroke="#8d6342" points="270.137,-27.5185 280.788,-30.1261 275.054,-26.6098 279.971,-25.701 279.971,-25.701 279.971,-25.701 275.054,-26.6098 279.153,-21.276 270.137,-27.5185 270.137,-27.5185"/>
<text text-anchor="middle" x="145" y="-103.9" font-family="Times Roman,serif" font-size="14.00">sent_messages</text>
</g>
<!-- Team&#45;&gt;Message -->
<g id="edge18" class="edge"><title>Team&#45;&gt;Message</title>
<path fill="none" stroke="#a3463a" d="M282.572,-185.841C260.895,-164.157 230.908,-133.344 228,-126 222.11,-111.124 222.553,-105.044 228,-90 236.989,-65.1712 260.574,-47.483 282.468,-35.8529"/>
<ellipse fill="none" stroke="#a3463a" cx="285.604" cy="-188.864" rx="4.00002" ry="4.00002"/>
<polygon fill="#a3463a" stroke="#a3463a" points="282.756,-35.7088 293.713,-35.2611 287.228,-33.4725 291.7,-31.2363 291.7,-31.2363 291.7,-31.2363 287.228,-33.4725 289.688,-27.2114 282.756,-35.7088 282.756,-35.7088"/>
<text text-anchor="middle" x="294" y="-103.9" font-family="Times Roman,serif" font-size="14.00">received_messages</text>
</g>
<!-- Team&#45;&gt;Customer -->
<g id="edge14" class="edge"><title>Team&#45;&gt;Customer</title>
<path fill="none" stroke="#4edecc" d="M341.732,-193.481C386.958,-175.606 463.763,-145.248 512.629,-125.933"/>
<ellipse fill="none" stroke="#4edecc" cx="337.742" cy="-195.058" rx="4.00001" ry="4.00001"/>
<polygon fill="#4edecc" stroke="#4edecc" points="512.712,-125.901 523.666,-126.41 517.362,-124.063 522.012,-122.225 522.012,-122.225 522.012,-122.225 517.362,-124.063 520.357,-118.04 512.712,-125.901 512.712,-125.901"/>
</g>
<!-- MessageAsGriddler -->
<g id="node7" class="node"><title>MessageAsGriddler</title>
<polygon fill="none" stroke="black" points="811,-226 665,-226 665,-190 811,-190 811,-226"/>
<text text-anchor="middle" x="738" y="-203.9" font-family="Times Roman,serif" font-size="14.00">MessageAsGriddler</text>
</g>
<!-- Business -->
<g id="node8" class="node"><title>Business</title>
<ellipse fill="none" stroke="black" cx="488" cy="-208" rx="53.0059" ry="18"/>
<text text-anchor="middle" x="488" y="-203.9" font-family="Times Roman,serif" font-size="14.00">Business</text>
</g>
<!-- Business&#45;&gt;Customer -->
<g id="edge20" class="edge"><title>Business&#45;&gt;Customer</title>
<path fill="none" stroke="#3295df" d="M505.256,-183.349C516.102,-167.855 530.039,-147.945 540.862,-132.483"/>
<ellipse fill="none" stroke="#3295df" cx="502.808" cy="-186.845" rx="4.00002" ry="4.00002"/>
<ellipse fill="#3295df" stroke="#3295df" cx="543.3" cy="-129" rx="4.00002" ry="4.00002"/>
</g>
</g>
</svg>
